<svg width="26" height="25" viewBox="0 0 26 25" fill="none" xmlns="http://www.w3.org/2000/svg">
<path d="M24.9599 0.523331C24.8104 0.406022 24.6061 0.388993 24.4377 0.479813L1.18768 13.0736C1.01928 13.1644 0.920893 13.3479 0.939814 13.539C0.956843 13.7301 1.0855 13.8928 1.26715 13.9515L7.87622 16.1085L7.23669 22.6513C7.21588 22.8595 7.33129 23.0562 7.52239 23.1376C7.58294 23.166 7.64917 23.1792 7.7135 23.1792C7.84783 23.1792 7.98028 23.1225 8.07299 23.0165L12.2413 18.3071L18.5173 24.4942C18.6082 24.5831 18.7292 24.6323 18.8541 24.6323C18.8976 24.6323 18.9412 24.6248 18.9847 24.6134C19.1493 24.568 19.278 24.4356 19.3196 24.2691L25.1321 1.01906C25.1775 0.833634 25.1113 0.638749 24.9599 0.523331ZM8.84875 16.0195L18.2997 8.3774L11.8591 17.2948L8.3341 21.2739L8.84875 16.0195Z" fill="white"/>
</svg>
